<?xml version="1.0" encoding="utf-8"?>
<!-- Generator: Adobe Illustrator 22.0.1, SVG Export Plug-In . SVG Version: 6.00 Build 0)  -->
<svg version="1.1" xmlns="http://www.w3.org/2000/svg" xmlns:xlink="http://www.w3.org/1999/xlink" x="0px" y="0px"
	 viewBox="0 0 750 750" style="enable-background:new 0 0 750 750;" xml:space="preserve">
<style type="text/css">
	.st0{fill:#FFFFFF;}
	.st1{fill:#FF2020;}
	.st2{font-family:'Athelas-Regular';}
	.st3{font-size:212.8176px;}
	.st4{letter-spacing:-19.6;}
	.st5{font-family:'Athelas-Bold';}
	.st6{font-size:81.0169px;}
	.st7{display:none;}
	.st8{display:inline;fill:none;}
	.st9{display:inline;}
</style>
<g id="Middle">
	<g>
		<path class="st0" d="M375.6,596.6c-0.5-0.1-1.1-0.3-1.6-0.5C374.5,596.3,375,596.5,375.6,596.6z"/>
		<path class="st1" d="M571.8,387.8c-8.1,6.6-16.2,13.3-24.1,19.8c2-10.4,3.1-21.1,3.2-32c2.5,2.5,7.1,4.8,14.4,8.4
			C567,384.8,568.6,385.9,571.8,387.8z"/>
		<path class="st1" d="M209.3,408.5c-8-6.7-16.1-13.5-24.3-20.2c13.7-9.2,19.8-13.3,21-20.3c-0.1,2.1-0.1,4.2-0.1,6.4
			C205.9,386.2,207.1,397.5,209.3,408.5z"/>
		<path class="st1" d="M392.3,202.6c-4.6-0.4-9.2-0.6-13.9-0.6c-5,0-9.8,0.2-14.7,0.6c4.6-8.4,9.3-17.1,14.3-26.3
			C383,185.6,387.8,194.2,392.3,202.6z"/>
		<path class="st1" d="M564.1,307.5c-4.4,16.3-8.3,31-12.3,45.8c-0.6,2.1-1.1,4-1.5,5.7c-1.4-16.3-5.1-31.9-10.8-46.5
			C547,310.9,555,309.4,564.1,307.5z"/>
		<path class="st1" d="M217.3,312.8c-6.1,16-9.9,33.1-11,51c-0.3-5.1-2.3-11.9-5.2-22.3c-2.9-10.3-5.5-20.6-9-34
			C201.1,309.4,209.4,311.1,217.3,312.8z"/>
		<path class="st1" d="M539.4,312.5c-4.3,0.9-8.4,1.7-12.5,2.6c-23.5,5.2-23.5,5.3-30.9-18.3c-0.6-2-1.4-3.9-2.7-7.4
			c-14.7,16.3-27.7,31.4-41.5,45.7c-0.3,0.3-0.6,0.5-0.9,0.8c-0.1,0-0.1,0.1-0.2,0.1c-0.3,0.2-0.6,0.4-1,0.6c-0.1,0-0.1,0.1-0.2,0.1
			c-0.2,0.1-0.4,0.2-0.5,0.3c-5.5,2.4-11.9-0.7-13-6.3c0-0.1,0-0.3-0.1-0.4c0,0,0-0.1,0-0.2c0-0.4-0.1-0.8-0.1-1.2
			c0-0.2,0-0.5,0-0.7c0.8-9.2,2.9-18.3,4.6-27.4c4.3-23,8.6-46.1,13.2-71.2c-6,2.9-9.5,4.5-13,6.2c-24.2,12.1-24.1,12.1-37.1-12.3
			c-3.7-7-7.5-13.9-11.3-21C459.7,207.9,516.1,252,539.4,312.5z"/>
		<path class="st1" d="M363.7,202.6c-5.9,10.8-11.4,21.1-16.8,31.6c-5.1,9.9-11.6,12.2-21.4,6.8c-6.8-3.7-13.8-6.9-23.2-11.5
			c6.2,33.1,12.1,63.1,17.2,93.3c0,0.1,0,0.1,0,0.2c0,0.2,0,0.3,0,0.5c0,0.2,0,0.4,0,0.6c0.5,8.8-10,14.3-17.1,8.8
			c-0.2-0.2-0.5-0.4-0.7-0.6c-0.2-0.2-0.5-0.4-0.7-0.7c-13-13.4-25.2-27.7-38.6-42.5c-1.8,5.6-3,8.8-3.9,12.1
			c-5.5,18.9-5.9,19.1-25.4,14.9c-5.3-1.1-10.5-2.3-16-3.4C240.5,252.4,296.6,208.3,363.7,202.6z"/>
		<path class="st1" d="M547.8,407.6c-15.1,77.8-82.6,137-164.3,139.3c-0.1-5.2-0.1-10.3-0.2-15.5c0-1.6,0-3.2-0.1-4.7
			c0-0.8,0-1.5,0-2.3c-0.6-38.3-5.1-36.6,34.9-30.8c20.9,3,39.6,3,65,6.5c-21.4-29.8-0.8-40.5,18.1-54.9
			C516.9,433.1,532.2,420.5,547.8,407.6z"/>
		<path class="st1" d="M374,508.7c-0.2,12.7-0.3,25.4-0.3,38.3c-81.5-2.2-149-60.9-164.5-138.4c14.8,12.4,29.7,24.7,45.3,35.8
			c20,14.3,33.7,28.8,20.7,54.6c-0.1,0-0.2,0-0.3,0c-0.7-2,0,0.5,0.2,0.2c-0.1,0.3,0.3,0.8,1,2.9c26.1-3.6,52.5-7.3,78.9-10.8
			C372.6,489,374.4,491.3,374,508.7z"/>
		<path class="st1" d="M436,330.2c0-0.1,0-0.1,0-0.2C436,330.1,436,330.2,436,330.2z"/>
		<path class="st1" d="M449.8,336.6C449.8,336.6,449.8,336.7,449.8,336.6c-0.1,0.1-0.1,0.1-0.2,0.1
			C449.7,336.7,449.8,336.7,449.8,336.6z"/>
		<path class="st1" d="M450.9,335.9c-0.1,0-0.1,0.1-0.2,0.1C450.8,336,450.9,336,450.9,335.9z"/>
		<path class="st1" d="M355.1,491.3c-26.4,3.5-52.8,7.2-78.9,10.8c-0.7-2-1.1-2.6-1-2.9c0-0.1,0.1-0.1,0.1-0.2
			C301.3,495.4,328.8,494.8,355.1,491.3z"/>
		<path class="st1" d="M302.6,333c-0.1-0.1-0.3-0.2-0.4-0.3c-0.1-0.1-0.2-0.2-0.3-0.3C302.1,332.6,302.4,332.8,302.6,333z"/>
		<path class="st1" d="M319.6,323.1c0-0.1,0-0.1,0-0.2c0,0.2,0.1,0.4,0.1,0.6C319.6,323.4,319.6,323.2,319.6,323.1z"/>
		<path class="st1" d="M383.5,546.9C383.4,546.9,383.4,546.9,383.5,546.9c-0.1-5.4-0.2-10.7-0.2-15.5
			C383.3,536.6,383.4,541.7,383.5,546.9z"/>
		<path class="st1" d="M275.2,499.2c0-0.1,0.1-0.1,0.1-0.2c-0.1,0-0.2,0-0.3,0C274.4,497,275.1,499.5,275.2,499.2z"/>
		<path class="st1" d="M436,330.1c0-0.4-0.1-0.8-0.1-1.2C435.9,329.3,435.9,329.7,436,330.1z"/>
		<path class="st1" d="M451.8,335.2c-0.3,0.3-0.6,0.5-0.9,0.8C451.2,335.7,451.5,335.4,451.8,335.2z"/>
		<path class="st1" d="M450.8,336c-0.3,0.2-0.6,0.4-1,0.6C450.1,336.5,450.5,336.3,450.8,336z"/>
		<path class="st1" d="M383.2,524.3c0,0.8,0,1.5,0,2.3C383.2,525.9,383.2,525.1,383.2,524.3z"/>
	</g>
	<text transform="matrix(1.1234 0 0 1 286.8433 367.5742)"><tspan x="0" y="0" class="st2 st3 st4">2</tspan><tspan x="72.8" y="0" class="st2 st3">5</tspan></text>
	<text transform="matrix(0.9589 0 0 1 252.2075 472.8379)" class="st5 st6">YEARS</text>
</g>
<g id="Path_Text" class="st7">
	<path id="SVGID_x5F_1_x5F_" class="st8" d="M622,365c0-136.4-110.6-247-247-247S128,228.6,128,365s110.6,247,247,247
		S622,501.4,622,365z"/>
	<text class="st9">	<textPath  xlink:href="#SVGID_x5F_1_x5F_" startOffset="747.347%">
<tspan  class="st5" style="font-size:48px;">of excellent service.</tspan>	</textPath>
</text>
	<path id="SVGID_x5F_2_x5F_" class="st8" d="M604,381.5C604,506,503,607,378.5,607S153,506,153,381.5S254,156,378.5,156
		S604,257,604,381.5z"/>
	<text class="st9">	<textPath  xlink:href="#SVGID_x5F_2_x5F_" startOffset="1022.5261%">
<tspan  class="st5" style="font-size:48px;">Celebrating</tspan><tspan  class="st5" style="font-size:83px;"> </tspan>	</textPath>
</text>
</g>
</svg>
